<svg id="Layer_1" data-name="Layer 1" xmlns="http://www.w3.org/2000/svg" viewBox="0 0 283.46 283.46"><defs><style>.cls-1{fill:none;stroke:#62bb46;stroke-miterlimit:10;stroke-width:12.12px;}</style></defs><title>Artboard 1 copy 3</title><path class="cls-1" d="M105.07,141S73.95,161.33,44,157.51s-36.3-16.22-21.57-25.66S67.76,112.26,105.07,141Z"/><path class="cls-1" d="M142.47,105.07S122.13,73.95,126,44s16.22-36.3,25.66-21.57S171.21,67.76,142.47,105.07Z"/><path class="cls-1" d="M178.4,142.47s31.12-20.34,61.11-16.52,36.3,16.22,21.57,25.66S215.7,171.21,178.4,142.47Z"/><path class="cls-1" d="M141,178.4s20.34,31.12,16.52,61.11-16.22,36.3-25.66,21.57S112.26,215.7,141,178.4Z"/><path class="cls-1" d="M116.33,115.28s-36.39-7.62-54.9-31.53-14.2-37.14,2.9-33.4S110.27,68.59,116.33,115.28Z"/><path class="cls-1" d="M168.18,116.33s7.62-36.39,31.53-54.9,37.14-14.2,33.4,2.9S214.88,110.27,168.18,116.33Z"/><path class="cls-1" d="M167.13,168.18s36.39,7.62,54.9,31.53,14.2,37.14-2.9,33.4S173.2,214.88,167.13,168.18Z"/><path class="cls-1" d="M115.28,167.13s-7.62,36.39-31.53,54.9-37.14,14.2-33.4-2.9S68.59,173.2,115.28,167.13Z"/><circle class="cls-1" cx="141.73" cy="141.73" r="16.26" transform="translate(-58.71 141.73) rotate(-45)"/></svg>