<svg id="Layer_1" data-name="Layer 1" xmlns="http://www.w3.org/2000/svg" viewBox="0 0 174.61 45.6"><defs><style>.cls-1{fill:#4d4d4f;}.cls-2{fill:none;stroke:#62bb46;stroke-miterlimit:10;stroke-width:0.91px;}.cls-3{fill:#62bb46;}</style></defs><title>Artboard 1 copy 3</title><path class="cls-1" d="M3.66,22.82a.56.56,0,0,1,.8-.07A6.18,6.18,0,0,0,8,24.09a3.48,3.48,0,0,0,2.19-.71A1.75,1.75,0,0,0,11.06,22a1.82,1.82,0,0,0-.83-1.41,5.73,5.73,0,0,0-2.45-.85l0,0a6.58,6.58,0,0,1-2.62-.9,2.41,2.41,0,0,1-1.25-2.07,2.86,2.86,0,0,1,1.25-2.26,5,5,0,0,1,2.83-.78,6.2,6.2,0,0,1,3.44,1.25.6.6,0,0,1,.17.8.57.57,0,0,1-.78.17,5,5,0,0,0-2.83-1.15,3.47,3.47,0,0,0-2.19.66A1.73,1.73,0,0,0,5,16.72a1.4,1.4,0,0,0,.66,1.15,5.8,5.8,0,0,0,2.36.8h0a8,8,0,0,1,2.8.94A2.88,2.88,0,0,1,12.19,22a2.94,2.94,0,0,1-1.32,2.33A4.71,4.71,0,0,1,8,25.22a7,7,0,0,1-4.26-1.65A.53.53,0,0,1,3.66,22.82Z"/><path class="cls-1" d="M24.54,18.22a3.45,3.45,0,0,0-3.68-3.39,3.44,3.44,0,0,0-3.65,3.39v6.5s0,.07,0,.09,0,.07,0,.09a.54.54,0,0,1-.35.28.08.08,0,0,1,0,0h-.12a.64.64,0,0,1-.45-.19.69.69,0,0,1-.09-.19.52.52,0,0,1,0-.19V9.29a.57.57,0,0,1,.57-.57.58.58,0,0,1,.59.57v6.08a4.77,4.77,0,0,1,3.65-1.7,4.6,4.6,0,0,1,4.83,4.55v6.43a.58.58,0,0,1-.59.57.57.57,0,0,1-.57-.57Z"/><path class="cls-1" d="M51.71,19.64v-5.4a.57.57,0,0,1,.57-.57.58.58,0,0,1,.59.57v1.67a5.46,5.46,0,0,1,4.38-2.24,5.74,5.74,0,0,1,0,11.47,5.42,5.42,0,0,1-4.38-2.26v6.6a.58.58,0,0,1-.59.57.57.57,0,0,1-.57-.57Zm1.15-.24a4.41,4.41,0,1,0,8.81,0,4.41,4.41,0,1,0-8.81-.19Z"/><path class="cls-1" d="M75.82,21.83h-9a.5.5,0,0,1-.35-.12.54.54,0,0,1-.07-.8L75.93,9l0,0a.54.54,0,0,1,.8-.07.74.74,0,0,1,.19.28s0,.07,0,.09V20.7h1.11a.57.57,0,1,1,0,1.13H77v2.83a.58.58,0,0,1-1.15,0Zm0-1.13V11L68,20.7Z"/><path class="cls-1" d="M82.91,19.71V9.29a.57.57,0,0,1,.57-.57.58.58,0,0,1,.59.57v6.64a5.51,5.51,0,0,1,4.43-2.26,5.67,5.67,0,0,1,5.58,5.8,5.66,5.66,0,0,1-5.58,5.75A5.49,5.49,0,0,1,84.07,23v1.67a.58.58,0,0,1-.59.57.57.57,0,0,1-.57-.57Zm1.15-.24a4.55,4.55,0,1,0,0-.19Z"/><path class="cls-1" d="M103.39,13.68a5.65,5.65,0,0,1,5.47,5.77,5.47,5.47,0,1,1-10.93,0A5.66,5.66,0,0,1,103.39,13.68Zm0,10.41a4.52,4.52,0,0,0,4.33-4.64,4.35,4.35,0,1,0-8.67,0A4.52,4.52,0,0,0,103.39,24.09Z"/><path class="cls-1" d="M122.43,23A5.49,5.49,0,0,1,118,25.22a5.66,5.66,0,0,1-5.58-5.75,5.67,5.67,0,0,1,5.58-5.8,5.51,5.51,0,0,1,4.43,2.26V9.29a.58.58,0,0,1,1.15,0V24.66a.58.58,0,0,1-1.15,0Zm0-3.32v-.38a4.6,4.6,0,1,0,0,.38Z"/><path class="cls-1" d="M127.78,14.22a.55.55,0,0,1,.54-.54.56.56,0,0,1,.59.54v6.27A3.53,3.53,0,0,0,132.45,24,3.57,3.57,0,0,0,136,20.49V14.22a.41.41,0,0,1,.09-.28s0,0,0-.07,0,0,0,0a.42.42,0,0,1,.21-.14h0l.07,0h.14a1.41,1.41,0,0,1,.28.12.57.57,0,0,1,.14.19.46.46,0,0,1,.07.24V24.3a5.44,5.44,0,0,1-5.49,5.42,5.77,5.77,0,0,1-2.38-.54.58.58,0,0,1-.24-.75.61.61,0,0,1,.73-.28,4.28,4.28,0,0,0,1.88.45A4.33,4.33,0,0,0,136,24.3v-.75a4.77,4.77,0,0,1-3.58,1.65,4.72,4.72,0,0,1-4.67-4.71Z"/><path class="cls-1" d="M141.52,22.87A1.18,1.18,0,1,1,140.34,24,1.17,1.17,0,0,1,141.52,22.87Z"/><path class="cls-1" d="M155,23a5.49,5.49,0,0,1-4.43,2.24A5.66,5.66,0,0,1,145,19.47a5.67,5.67,0,0,1,5.58-5.8A5.51,5.51,0,0,1,155,15.94V9.29a.58.58,0,0,1,1.15,0V24.66a.58.58,0,0,1-1.15,0Zm0-3.32v-.38a4.6,4.6,0,1,0,0,.38Z"/><path class="cls-1" d="M161.34,9.29a.57.57,0,0,1,.57-.57.58.58,0,0,1,.59.57v11.1l6.83-6.81a.57.57,0,0,1,.8.8l-4.45,4.45,4.48,5.44a.55.55,0,0,1-.42.94.49.49,0,0,1-.45-.21l-4.43-5.35L162.49,22v2.64a.58.58,0,0,1-.59.57.57.57,0,0,1-.57-.57Z"/><path class="cls-2" d="M36.19,19.64a8,8,0,0,1-4.59,1.24C29.35,20.59,28.87,19.66,30,19S33.39,17.48,36.19,19.64Z"/><path class="cls-2" d="M39,16.94a8,8,0,0,1-1.24-4.59C38,10.1,39,9.63,39.68,10.74S41.15,14.14,39,16.94Z"/><path class="cls-2" d="M41.69,19.75a8,8,0,0,1,4.59-1.24c2.25.29,2.72,1.22,1.62,1.93S44.49,21.91,41.69,19.75Z"/><path class="cls-2" d="M38.88,22.44A8,8,0,0,1,40.12,27c-.29,2.25-1.22,2.72-1.93,1.62S36.73,25.24,38.88,22.44Z"/><path class="cls-2" d="M37,17.71a8,8,0,0,1-4.12-2.37c-1.39-1.79-1.07-2.79.22-2.51S36.58,14.2,37,17.71Z"/><path class="cls-2" d="M40.92,17.79a8,8,0,0,1,2.37-4.12c1.79-1.39,2.79-1.07,2.51.22S44.43,17.33,40.92,17.79Z"/><path class="cls-2" d="M40.84,21.68A8,8,0,0,1,45,24c1.39,1.79,1.07,2.79-.22,2.51S41.3,25.18,40.84,21.68Z"/><path class="cls-2" d="M37,21.6a8,8,0,0,1-2.37,4.12c-1.79,1.39-2.79,1.07-2.51-.22S33.45,22.05,37,21.6Z"/><circle class="cls-2" cx="38.94" cy="19.69" r="1.22" transform="translate(-2.52 33.3) rotate(-45)"/><path class="cls-3" d="M101.86,38.33v-5a.47.47,0,0,1,.94,0v2.46L105.57,33a.47.47,0,0,1,.67,0,.48.48,0,0,1,0,.67l-1.88,1.88,1.9,2.49a.46.46,0,0,1-.07.66.44.44,0,0,1-.3.11.46.46,0,0,1-.35-.17l-1.85-2.42-.89.91v1.22a.47.47,0,0,1-.94,0Z"/><path class="cls-3" d="M111.94,38.09a.47.47,0,0,1-.3.6.73.73,0,0,1-.19,0h0a.62.62,0,0,1-.33-.09.84.84,0,0,1-.27-.3,2.31,2.31,0,0,1-.18-1,.72.72,0,0,0-.1-.37.79.79,0,0,0-.26-.25,1.66,1.66,0,0,0-.48-.21h-1v1.86a.48.48,0,0,1-.48.47.47.47,0,0,1-.47-.47V33.28a.46.46,0,0,1,.47-.47h1.53a1.83,1.83,0,0,1,1.83,1.84,1.81,1.81,0,0,1-.67,1.4,1.33,1.33,0,0,1,.3.32,1.62,1.62,0,0,1,.28.92,2.19,2.19,0,0,0,0,.51A.46.46,0,0,1,111.94,38.09Zm-1.2-3.44a.88.88,0,0,0-.88-.89h-1.05v1.76h1.05A.88.88,0,0,0,110.74,34.65Z"/><path class="cls-3" d="M117.9,33.55a3.14,3.14,0,0,1,0,4.33,2.8,2.8,0,0,1-2,.92,2.89,2.89,0,0,1-2.1-.92,3.19,3.19,0,0,1,0-4.33,2.85,2.85,0,0,1,2.1-.92A2.77,2.77,0,0,1,117.9,33.55Zm-.11,2.17a2.21,2.21,0,0,0-.58-1.5,1.85,1.85,0,0,0-2.74,0,2.18,2.18,0,0,0-.58,1.5,2.14,2.14,0,0,0,.58,1.49,1.83,1.83,0,0,0,2.74,0A2.18,2.18,0,0,0,117.79,35.72Z"/><path class="cls-3" d="M122.46,36.47H121.4v1.86a.48.48,0,0,1-1,0V33.28a.47.47,0,0,1,.47-.47h1.53a1.83,1.83,0,1,1,0,3.66Zm-1.05-1h1.05a.88.88,0,1,0,0-1.76H121.4Z"/><path class="cls-3" d="M126.75,35.25h0a.94.94,0,0,1,1.89,0h0a.94.94,0,0,1-1.89,0Z"/><path class="cls-3" d="M133.44,38.71l-.06,0s0,0,0,0l0-.05h0l0-.07-2.1-5a.47.47,0,0,1,.86-.36l1.67,4,1.67-4a.47.47,0,0,1,.87.36l-2.11,5a.26.26,0,0,1,0,.07h0l0,.05,0,0-.05,0h0l-.07,0h0l-.07,0h-.21l-.07,0h0l-.08-.05Z"/><path class="cls-3" d="M137.65,38.33V33.28a.46.46,0,0,1,.47-.47h2.8a.48.48,0,0,1,.47.47.48.48,0,0,1-.47.48H138.6v1.57h2a.48.48,0,0,1,0,1h-2v1.58h2.32a.48.48,0,0,1,0,1h-2.8A.47.47,0,0,1,137.65,38.33Z"/><path class="cls-3" d="M142.72,38.33V33.28a.47.47,0,0,1,.47-.47.48.48,0,0,1,.48.47v4.57H146a.48.48,0,0,1,0,1h-2.8A.47.47,0,0,1,142.72,38.33Z"/><path class="cls-3" d="M148.51,38.71l-.06,0s0,0,0,0l0-.05h0l0-.07-2.1-5a.47.47,0,0,1,.86-.36l1.67,4,1.67-4a.47.47,0,0,1,.87.36l-2.11,5a.26.26,0,0,1,0,.07h0l0,.05,0,0-.05,0h0l-.07,0h0l-.07,0h-.21l-.07,0h0l-.08-.05Z"/><path class="cls-3" d="M151.61,38.11l2.88-4.94a.66.66,0,0,1,.62-.37h4.12a.47.47,0,0,1,.47.47.47.47,0,0,1-.47.47h-2.77v1.56h2.39a.48.48,0,0,1,.47.48.47.47,0,0,1-.47.46h-2.39v1.61h2.82a.47.47,0,0,1,.47.47.47.47,0,0,1-.47.47h-3.34a.52.52,0,0,1-.53-.53v-.92h-2.26l-.69,1.21a.51.51,0,0,1-.46.29.44.44,0,0,1-.46-.44A.59.59,0,0,1,151.61,38.11Zm3.79-1.7v-2.7h-.17l-1.55,2.7Z"/><path class="cls-3" d="M165,38.09a.47.47,0,0,1-.3.6.73.73,0,0,1-.19,0h0a.62.62,0,0,1-.33-.09.84.84,0,0,1-.27-.3,2.31,2.31,0,0,1-.18-1,.73.73,0,0,0-.1-.37.79.79,0,0,0-.26-.25,1.66,1.66,0,0,0-.48-.21h-1v1.86a.48.48,0,0,1-.48.47.47.47,0,0,1-.47-.47V33.28a.46.46,0,0,1,.47-.47h1.53a1.83,1.83,0,0,1,1.83,1.84,1.81,1.81,0,0,1-.67,1.4,1.33,1.33,0,0,1,.3.32,1.62,1.62,0,0,1,.28.92,2.19,2.19,0,0,0,0,.51A.46.46,0,0,1,165,38.09Zm-1.2-3.44a.88.88,0,0,0-.88-.89h-1.05v1.76h1.05A.88.88,0,0,0,163.83,34.65Z"/><path class="cls-3" d="M166.41,38.33V33.28a.46.46,0,0,1,.47-.47h2.8a.48.48,0,0,1,.47.47.48.48,0,0,1-.47.48h-2.32v1.57h2a.48.48,0,0,1,0,1h-2v1.58h2.32a.48.48,0,0,1,0,1h-2.8A.47.47,0,0,1,166.41,38.33Z"/></svg>